{
  "accessors": [
    {
      "bufferView": 2,
      "componentType": 5126,
      "count": 6961,
      "max": [
        0.50547200441360474,
        0.49888071417808533,
        0.00041306018829345703
      ],
      "min": [
        -0.1639540046453476,
        -0.48918330669403076,
        -1.921083927154541
      ],
      "type": "VEC3"
    },
    {
      "bufferView": 2,
      "byteOffset": 83532,
      "componentType": 5126,
      "count": 6961,
      "max": [
        0.99942076206207275,
        0.99994754791259766,
        0.99982500076293945
      ],
      "min": [
        -0.99999904632568359,
        -0.99994754791259766,
        -0.999267578125
      ],
      "type": "VEC3"
    },
    {
      "bufferView": 1,
      "componentType": 5126,
      "count": 6961,
      "max": [
        0.99937200546264648,
        0.99794399738311768
      ],
      "min": [
        0.00083199999062344432,
        0.0023370000999420881
      ],
      "type": "VEC2"
    },
    {
      "bufferView": 0,
      "componentType": 5125,
      "count": 32520,
      "max": [
        6960
      ],
      "min": [
        0
      ],
      "type": "SCALAR"
    }
  ],
  "asset": {
    "extras": {
      "author": "Ameer Studio (https://sketchfab.com/uchiha.321abc)",
      "license": "CC-BY-4.0 (http://creativecommons.org/licenses/by/4.0/)",
      "source": "https://sketchfab.com/3d-models/seraphine-c4d72965ffce45b8886d1e0ceab6728e",
      "title": "Seraphine"
    },
    "generator": "Sketchfab-9.79.0",
    "version": "2.0"
  },
  "bufferViews": [
    {
      "buffer": 0,
      "byteLength": 130080,
      "byteOffset": 0,
      "name": "floatBufferViews",
      "target": 34963
    },
    {
      "buffer": 0,
      "byteLength": 55688,
      "byteOffset": 130080,
      "byteStride": 8,
      "name": "floatBufferViews",
      "target": 34962
    },
    {
      "buffer": 0,
      "byteLength": 167064,
      "byteOffset": 185768,
      "byteStride": 12,
      "name": "floatBufferViews",
      "target": 34962
    }
  ],
  "buffers": [
    {
      "byteLength": 352832,
      "uri": "scene.bin"
    }
  ],
  "extensionsRequired": [
    "KHR_materials_pbrSpecularGlossiness"
  ],
  "extensionsUsed": [
    "KHR_materials_pbrSpecularGlossiness"
  ],
  "images": [
    {
      "uri": "textures/Mat_cwfyfr1_userboy17.bmp_diffuse.png"
    }
  ],
  "materials": [
    {
      "doubleSided": true,
      "emissiveFactor": [
        0,
        0,
        0
      ],
      "extensions": {
        "KHR_materials_pbrSpecularGlossiness": {
          "diffuseFactor": [
            1,
            1,
            1,
            1
          ],
          "diffuseTexture": {
            "index": 0,
            "texCoord": 0
          },
          "glossinessFactor": 0,
          "specularFactor": [
            0,
            0,
            0
          ]
        }
      },
      "name": "Mat_cwfyfr1_userboy17.bmp"
    }
  ],
  "meshes": [
    {
      "name": "cwfyfr1_Mat_cwfyfr1_userboy17.bmp_0",
      "primitives": [
        {
          "attributes": {
            "NORMAL": 1,
            "POSITION": 0,
            "TEXCOORD_0": 2
          },
          "indices": 3,
          "material": 0,
          "mode": 4
        }
      ]
    }
  ],
  "nodes": [
    {
      "children": [
        1
      ],
      "name": "RootNode (gltf orientation matrix)",
      "rotation": [
        -0.70710678118654746,
        -0,
        -0,
        0.70710678118654757
      ]
    },
    {
      "children": [
        2
      ],
      "matrix": [
        0.0017949509201571345,
        0,
        0,
        0,
        0,
        0.0017949509201571345,
        0,
        0,
        0,
        0,
        0.0017949509201571345,
        0,
        0,
        0,
        0,
        1
      ],
      "name": "RootNode (model correction matrix)"
    },
    {
      "children": [
        3
      ],
      "matrix": [
        1,
        0,
        0,
        0,
        0,
        0,
        1,
        0,
        0,
        -1,
        0,
        0,
        0,
        0,
        0,
        1
      ],
      "name": "d780ffd0fb544b99b0520ed27a08d076.fbx"
    },
    {
      "children": [
        4
      ],
      "name": "RootNode"
    },
    {
      "children": [
        5
      ],
      "matrix": [
        467.905517578125,
        0,
        0,
        0,
        0,
        -0.00013201016924628941,
        467.90551757810641,
        0,
        0,
        -467.90551757810641,
        -0.00013201016924628941,
        0,
        0,
        0,
        0,
        1
      ],
      "name": "cwfyfr1"
    },
    {
      "mesh": 0,
      "name": "cwfyfr1_Mat_cwfyfr1_userboy17.bmp_0"
    }
  ],
  "samplers": [
    {
      "magFilter": 9729,
      "minFilter": 9987,
      "wrapS": 10497,
      "wrapT": 10497
    }
  ],
  "scene": 0,
  "scenes": [
    {
      "name": "OSG_Scene",
      "nodes": [
        0
      ]
    }
  ],
  "textures": [
    {
      "sampler": 0,
      "source": 0
    }
  ]
}

