<?xml version="1.0" standalone="no"?><!DOCTYPE svg PUBLIC "-//W3C//DTD SVG 1.1//EN" "http://www.w3.org/Graphics/SVG/1.1/DTD/svg11.dtd"><svg t="1623383653793" class="icon" viewBox="0 0 1024 1024" version="1.1" xmlns="http://www.w3.org/2000/svg" p-id="3251" xmlns:xlink="http://www.w3.org/1999/xlink" width="168" height="168"><defs><style type="text/css"></style></defs><path d="M503.019 425.167c0-2.993 0-2.993 0 0 0-2.993 0 0 0 0z m200.607 215.582h-5.986c-0.001 0 2.993 2.992 5.986 0zM512.004 0C230.551 0 0 227.553 0 512.002 0 796.447 227.553 1024 512.004 1024 793.449 1024 1024 796.447 1024 512.002 1024 227.553 796.447 0 512.004 0z m326.359 200.606c-17.963 0-29.939 0-44.914 8.984-5.986 2.992-8.978 8.984-17.963 11.976-5.992 2.992-14.969 0-20.961 2.992-23.953 8.984-20.955 56.892-50.9 50.9-14.969-2.992-23.953-20.955-32.937-32.932-5.986-8.984-17.963-17.968-8.978-29.945h-11.977c5.985-11.977 20.955-8.978 23.953-14.969 5.986-14.97-17.969-14.97-26.951-17.963 8.983-8.984 11.977 2.992 20.961 0 8.983-2.998-2.994-11.977-8.984-14.975-2.994 0-29.939 8.983-14.97-5.986-20.955-11.977-41.916-26.947-62.877-38.923-2.992 14.97 26.947 23.955 38.923 26.947-2.992 5.985-11.977 14.969-17.963 11.977-5.99-2.992-2.992-14.969-14.969-11.977-5.992 17.963 14.969 11.977 17.963 23.953 2.992 11.977-8.984 5.986-11.978 5.986 0 0-8.983-8.978-8.983-2.994 0 5.992 11.977 5.992 14.975 11.978-14.975 0-23.953-5.986-35.931-11.978-14.975-8.983-20.961-8.983-38.922-8.983 5.985-2.994 11.971-2.994 17.961-5.986 2.994-2.992 11.978-11.977 11.978-14.969 2.992-8.984 0-8.984-8.984-14.976-2.994-2.992-11.977-14.969-23.955-14.969-32.932-5.986-11.977 29.945-35.93 35.93-5.986 0-17.963-2.992-20.955 2.992-2.998 3-2.998 11.978-5.992 14.976-5.985 5.985-14.969 5.985-20.961 11.977-5.985 2.992-20.955 14.969-23.947 20.955-14.975 26.947 29.939 35.931 47.902 41.922 8.984 2.992 29.945 8.978 32.937 14.97 5.99 8.983-5.986 14.969 5.99 20.961 2.994 2.992 11.978 2.992 14.97-2.999 5.985-5.985-2.992-5.985-2.992-14.969-3-11.977 2.992-8.984 8.977-11.977 11.978-8.984 8.984-11.977 5.992-26.947-2.992-5.99-11.977-26.947-2.992-32.937 8.978-5.986 29.939 2.998 38.922 5.99 8.978 0 14.97 11.978 17.963 17.963 2.994 2.994 8.984 8.984 14.97 8.984 8.984 0 5.99-8.984 8.984-11.976 14.969-8.984 17.967 2.992 23.953 14.969 5.985 11.978 8.984 14.97 17.963 23.955 2.998 2.992 23.953 14.969 20.961 23.953 0 5.992-20.961 11.977-26.947 14.97-20.961 5.991-59.884-11.978-62.877 20.961 8.984-2.994 29.939-20.961 35.93-11.978 2.994 2.994-2.992 8.984 0 14.97 2.994 11.977 11.978 8.984 23.955 5.991h-3c11.978-5.991 11.978-5.991 17.968-14.969 2.992-2.998 5.986-11.977 8.984-14.975 8.978-8.978 11.977-2.994 17.963 2.998 2.992 2.992 14.969 23.953 11.977 20.955-17.963-2.992-32.937-2.992-47.908 5.991-8.984 5.986-14.969 11.978-23.953 14.97-2.992 0-20.955 2.992-17.963 0 2.994-2.992 11.977-5.992 17.963-11.977-11.977-5.986-20.955 5.985-29.939 11.977-8.984 2.992-11.977 11.977-17.968 20.961-2.992 2.992-8.978 2.992-11.977 8.978-2.992 2.998-2.992 8.984-5.985 14.975-2.994 2.992-8.984 0-8.984 5.986-2.994 5.99 2.992 8.984 0 14.969-2.994 5.992-14.97 11.977-20.955 17.968l2.992-2.992c-5.992 5.985-11.977 8.978-14.969 14.969 2.992 8.978 8.977 29.939 5.985 32.932-14.969 11.977-23.953-11.977-29.939-17.961-14.975-20.961-41.922-5.992-62.882-5.992-23.947 2.998-47.902 32.937-32.932 59.884 5.986 11.977 20.961 17.967 32.932 14.975 11.977-2.998 14.976-20.961 26.953-20.961 20.955 0 0 20.961 0 29.939-2.998 5.992 2.992 8.984 8.978 8.984 5.99 0 14.975-2.992 17.967 0 2.994 2.992 2.994 11.977 5.986 8.984-8.978 5.985-5.986 23.953 2.998 29.939 8.978 5.99 20.955 0 29.939 2.992 17.963 5.992 8.984 0 26.947-11.977 11.977-5.986 11.977 0 20.961 0 5.985 0 8.984-5.986 17.963-5.986 5.99 2.994 8.983 5.986 17.967 8.984h8.984c14.97 2.992 26.947 11.977 38.923 20.955 8.978 5.992 17.963 5.992 29.939 8.984 8.984 2.992 23.953 14.97 23.953 26.947 0 2.998-8.984 11.977-8.984 14.969 2.998 2.998 17.968-2.992 20.961-2.992 0 2.992-11.977 8.984-11.977 5.99 0 2.994 5.992 5.986 8.984 5.986 5.986-17.963 14.969-5.986 23.953-2.992 8.978 2.992 20.955 2.992 29.939 5.985 8.984 3 26.947 8.984 32.937 14.976 5.986 8.978 2.994 20.955-2.992 29.939-5.992 11.977-17.968 14.969-23.953 26.945-3 8.984 0 20.961-3 29.945-2.992 14.97-5.985 8.978-14.969 17.963-8.984 8.984 0 5.99-11.977 11.977-11.977 5.992-20.955 2.992-29.939 14.969v-2.992c-2.992 5.992-5.992 14.97-5.992 17.968-2.992 8.978-8.978 11.977-14.969 17.963-2.992 2.992-23.953 32.937-23.953 29.939-2.994-2.994-17.963 2.998-17.963 0 0 2.998 0 2.998 2.992 5.99-2.992 23.953-14.969 26.947-38.923 26.947 2.994 11.977-8.983 8.984-14.969 14.969-2.998 2.998-2.998 14.976-5.992 17.968 0 2.992-11.977 14.969-11.977 17.963 0 2.998 2.994 5.99 5.992 8.984-17.968 2.992-32.937 5.985-50.906 5.985 2.998-2.992 2.998-8.978-5.986-8.978 2.994-8.984 8.984-11.977 11.977-17.967v-8.979c2.994-11.978 2.994-5.992 0-14.976-5.99-20.955 2.994-26.945 8.984-47.906 5.986-20.956 5.986-44.91 8.978-68.863 2.998-8.984 5.992-32.937 0-41.922-2.992-11.971-20.955-20.955-29.939-26.947-11.977-11.977-17.961-20.955-26.945-35.93-2.994-5.986-8.984-11.977-11.977-20.955-5.992-14.976 0-5.992 0-14.976 0-8.978 0-17.961 2.992-26.945 2.992-8.978 11.977-17.963 17.968-26.947 2.992-8.984 0-20.961-8.984-23.953-5.992-2.994-11.977 2.992-14.97 0-5.99 0-14.975-5.986-20.961-11.977-8.984-5.986-11.977-14.97-20.961-20.961-5.985-5.986-11.977-2.994-20.961-2.994-8.978-2.992-11.971-11.977-17.963-14.969-8.983-5.986-14.969 2.992-23.953 0-8.984 0-20.961-11.977-29.939-14.97-17.968-5.99-26.951-14.969-32.937-32.937-5.986-14.969-14.969-20.961-23.953-32.937-8.984-11.977-11.977-20.955-26.947-26.947-2.992 0 2.992 11.978 2.992 14.97 5.992 8.984 14.97 17.968 20.961 29.945 8.984 14.969 5.986 14.969-2.992 2.992-11.977-14.969-23.953-29.939-32.937-44.908 5.986 5.985 5.986 0 0-5.992-5.992-5.986-14.97-8.984-17.968-14.969-20.955-17.968-23.953-44.915-23.953-71.861 0-8.984 2.998-14.97 2.998-23.955 0-5.985-5.99-11.977-11.977-17.961-2.992-2.999-5.992-8.984-5.992-8.984-5.985-8.984-8.978-14.97-14.969-20.961-2.992-2.994-14.97-11.977-26.947-20.961 47.908-59.878 110.784-107.786 182.645-137.731 0 3 2.992 5.992 2.992 11.978 8.984 8.983 14.97 8.983 23.955 11.977 0 11.977-17.968 14.969-26.947 11.977-11.977-2.992-26.947-5.986-35.93 5.991 5.985 2.994 23.953 17.963 20.955 2.994h35.93c5.992 0 20.961 5.985 23.953 2.992 3 0 3-8.984 5.992-11.977-2.992 0-5.992-2.992-8.984 0 8.984-8.984 14.97-2.992 26.947 2.992-11.977 5.992-2.994 23.953 5.991 8.984 8.978-11.977-2.992-17.963-11.977-23.953 11.977-14.97 17.963-14.97 29.939 0 2.992-8.978 8.984-5.986 17.968-5.986v-2.992c-2.998 0-8.984-2.998-11.977-2.998 8.978-14.97 2.992-17.963 14.969-20.957 8.984-2.998 35.931 0 41.916-8.983-17.963 2.992-41.916 5.985-59.884 11.977-8.978 2.992-14.969 14.969-23.947 8.984-8.984-8.984 5.986-20.961 11.971-23.955h-2.992c29.945-5.99 62.877-8.984 95.814-8.984 20.961 0 41.916 2.994 62.877 2.994-5.985 2.992-2.992 5.99-5.985 8.984-8.984 5.985-26.953 11.977-38.929 17.961 14.975 0 50.906 14.976 56.89-5.985-5.985 0-8.983 0-14.969-2.994 8.984-5.991 17.963-11.977 29.939-14.975 86.833 20.966 170.671 68.873 230.555 134.742 2.992 0 0 0 0 0zM922.2 380.257c0-2.992 2.994-2.992 2.994-2.992 2.992-2.998 0-5.99 2.992-8.984 2.998-2.992 5.99-2.992 8.984-5.99l2.992-2.994c8.984 20.961 14.969 41.922 17.968 65.87l-8.984 2.998c-5.986 0-8.984-2.998-11.977-5.99l-11.977-11.978c-2.994-5.985 0-8.978 0-14.969-2.992-5.987-5.984-11.977-2.992-14.971z m5.986 233.545c-8.978-8.984-17.963-17.968-23.953-26.947-5.986-11.977-2.994-20.961-2.994-32.937 0-8.984-5.985-23.953 0-32.937l8.984-8.978c2.992-5.99 2.992-11.977 8.984-17.968 5.986-5.985 11.977-8.983 17.963-14.969 5.99-5.992 5.99-8.984 8.984-17.968 2.992-5.985 8.977-14.969 14.969-17.961 2.992 23.953 5.986 44.914 5.986 68.867 0 38.923-5.986 80.839-14.97 116.77-8.978-2.995-17.962-8.986-23.953-14.972z m0 0" p-id="3252"></path></svg>